<svg version="1.1" id="Layer_1" xmlns="http://www.w3.org/2000/svg" xmlns:xlink="http://www.w3.org/1999/xlink" x="0px" y="0px"
	 width="100%" viewBox="0 0 356 425" enable-background="new 0 0 356 425" xml:space="preserve">
<path fill="#FFFF" opacity="0" stroke="none" 
	d="
M221.000000,426.000000 
	C147.333344,426.000000 74.166695,426.000000 1.000029,426.000000 
	C1.000020,284.333374 1.000020,142.666748 1.000010,1.000087 
	C119.666603,1.000058 238.333206,1.000058 356.999878,1.000029 
	C356.999908,142.666580 356.999908,284.333160 356.999939,425.999878 
	C311.833344,426.000000 266.666656,426.000000 221.000000,426.000000 
M30.989674,236.719650 
	C31.653748,245.608170 32.032894,254.531876 33.124725,263.367554 
	C33.550461,266.812836 34.960239,270.508209 36.990627,273.317078 
	C44.481525,283.680145 56.620888,284.252563 66.251900,278.133698 
	C80.031235,269.379303 93.857491,260.556671 106.709435,250.538895 
	C114.209343,244.692902 120.890007,237.139877 126.099098,229.154480 
	C135.480240,214.773407 136.917313,198.413162 135.033600,181.490250 
	C133.244354,165.415894 132.279907,149.248779 131.009064,133.118011 
	C130.255966,123.558830 129.692963,113.984337 128.899979,104.428719 
	C127.685478,89.793633 126.272728,75.174873 125.085175,60.537743 
	C124.256142,50.319542 123.980247,40.045990 122.818817,29.870033 
	C122.305954,25.376539 120.210518,21.063669 118.655434,16.100363 
	C116.642525,17.368837 115.674873,17.926666 114.761215,18.562124 
	C99.413490,29.236551 84.221184,40.143391 68.675369,50.520752 
	C59.042732,56.950867 49.355705,63.016693 40.939693,71.259895 
	C27.104885,84.810646 20.917551,101.258652 21.220348,119.930679 
	C21.473854,135.563202 23.700695,151.159943 24.944460,166.781235 
	C26.332989,184.220734 27.536524,201.675034 28.952873,219.112152 
	C29.405857,224.689011 30.280323,230.231613 30.989674,236.719650 
M219.103897,288.521362 
	C215.437042,286.650726 211.840378,284.623993 208.090485,282.938080 
	C195.738541,277.384888 183.899948,270.550995 169.699402,270.141418 
	C161.369507,269.901184 153.612427,271.448273 146.474976,275.271759 
	C126.293259,286.083038 107.001534,298.303375 88.568184,311.951233 
	C79.205475,318.883270 75.322350,332.549744 84.004227,341.257782 
	C87.772415,345.037354 92.813004,347.758362 97.652016,350.220551 
	C111.615219,357.325378 125.704185,364.192596 139.863434,370.900543 
	C166.487579,383.513763 193.059570,396.251526 219.912354,408.363068 
	C241.086472,417.913330 262.080078,416.430908 281.655701,403.838470 
	C296.901154,394.031525 311.565338,383.322174 326.512360,373.049652 
	C334.953400,367.248444 343.444092,361.519501 352.465942,355.381409 
	C348.801880,352.358368 345.860809,348.982880 342.162933,347.072052 
	C333.610321,342.652679 324.635834,339.059021 315.932373,334.920410 
	C298.617401,326.686859 281.347260,318.358063 264.101410,309.980469 
	C250.538208,303.391876 237.045776,296.657623 223.500153,290.032593 
	C222.349701,289.469910 221.034729,289.243561 219.103897,288.521362 
z"/>
<path fill="#638C1D" opacity="1.000000" stroke="none" 
	d="
M30.975809,236.254761 
	C30.280323,230.231613 29.405857,224.689011 28.952873,219.112152 
	C27.536524,201.675034 26.332989,184.220734 24.944460,166.781235 
	C23.700695,151.159943 21.473854,135.563202 21.220348,119.930679 
	C20.917551,101.258652 27.104885,84.810646 40.939693,71.259895 
	C49.355705,63.016693 59.042732,56.950867 68.675369,50.520752 
	C84.221184,40.143391 99.413490,29.236551 114.761215,18.562124 
	C115.674873,17.926666 116.642525,17.368837 118.655434,16.100363 
	C120.210518,21.063669 122.305954,25.376539 122.818817,29.870033 
	C123.980247,40.045990 124.256142,50.319542 125.085175,60.537743 
	C126.272728,75.174873 127.685478,89.793633 128.899979,104.428719 
	C129.692963,113.984337 130.255966,123.558830 131.009064,133.118011 
	C132.279907,149.248779 133.244354,165.415894 135.033600,181.490250 
	C136.917313,198.413162 135.480240,214.773407 126.099098,229.154480 
	C120.890007,237.139877 114.209343,244.692902 106.709435,250.538895 
	C93.857491,260.556671 80.031235,269.379303 66.251900,278.133698 
	C56.620888,284.252563 44.481525,283.680145 36.990627,273.317078 
	C34.960239,270.508209 33.550461,266.812836 33.124725,263.367554 
	C32.032894,254.531876 31.653748,245.608170 30.975809,236.254761 
z"/>
<path fill="#648C1D" opacity="1.000000" stroke="none" 
	d="
M219.450043,288.691162 
	C221.034729,289.243561 222.349701,289.469910 223.500153,290.032593 
	C237.045776,296.657623 250.538208,303.391876 264.101410,309.980469 
	C281.347260,318.358063 298.617401,326.686859 315.932373,334.920410 
	C324.635834,339.059021 333.610321,342.652679 342.162933,347.072052 
	C345.860809,348.982880 348.801880,352.358368 352.465942,355.381409 
	C343.444092,361.519501 334.953400,367.248444 326.512360,373.049652 
	C311.565338,383.322174 296.901154,394.031525 281.655701,403.838470 
	C262.080078,416.430908 241.086472,417.913330 219.912354,408.363068 
	C193.059570,396.251526 166.487579,383.513763 139.863434,370.900543 
	C125.704185,364.192596 111.615219,357.325378 97.652016,350.220551 
	C92.813004,347.758362 87.772415,345.037354 84.004227,341.257782 
	C75.322350,332.549744 79.205475,318.883270 88.568184,311.951233 
	C107.001534,298.303375 126.293259,286.083038 146.474976,275.271759 
	C153.612427,271.448273 161.369507,269.901184 169.699402,270.141418 
	C183.899948,270.550995 195.738541,277.384888 208.090485,282.938080 
	C211.840378,284.623993 215.437042,286.650726 219.450043,288.691162 
z"/>
</svg>